<svg xmlns="http://www.w3.org/2000/svg" width="42" height="48" viewBox="0 0 42 48"><path fill="#81BF37" fill-rule="evenodd" d="M233.847 666.995l1.678 1.673s3.67.274 3.843.288a.463.463 0 0 1 .418.39c.033.242 5.214 35.446 5.214 35.446l-12.713 2.763 1.56-40.56zm-1.95-1.334a1.59 1.59 0 0 0-.24.05l-1.428.442c-.852-2.463-2.355-4.726-4.998-4.726-.073 0-.15.002-.224.007-.753-.999-1.684-1.434-2.488-1.434-6.16 0-9.104 7.74-10.026 11.672-2.394.745-4.094 1.274-4.31 1.343-1.338.422-1.38.464-1.555 1.729-.132.958-3.628 28.127-3.628 28.127L230.24 708l.029-.006 1.628-42.333zm-7.092 1.911l-.001.269-4.762 1.481c.917-3.554 2.635-5.272 4.138-5.92.377.954.625 2.323.625 4.17zm-2.457-5.912c.268 0 .535.092.792.269-1.975.933-4.09 3.285-4.984 7.98l-3.763 1.172c1.046-3.582 3.531-9.42 7.955-9.42zm1.062 20.933s-1.594-.855-3.548-.855c-2.866 0-3.01 1.807-3.01 2.262 0 2.486 6.444 3.438 6.444 9.258 0 4.578-2.89 7.527-6.787 7.527-4.676 0-7.067-2.925-7.067-2.925l1.252-4.157s2.459 2.121 4.533 2.121c1.354 0 1.906-1.072 1.906-1.855 0-3.242-5.288-3.387-5.288-8.714 0-4.481 3.202-8.82 9.665-8.82 2.49 0 3.72.718 3.72.718l-1.82 5.44zm3.009-15.255l.001-.5c0-1.53-.212-2.762-.55-3.739 1.362.171 2.27 1.73 2.853 3.522l-2.304.717z" transform="translate(-203 -660)"/></svg>